<?xml version="1.0" encoding="UTF-8" standalone="no"?>
<!-- Created with Inkscape (http://www.inkscape.org/) -->

<svg
   width="512"
   height="512"
   viewBox="0 0 135.46667 135.46667"
   version="1.1"
   id="svg1"
   xml:space="preserve"
   inkscape:version="1.3.2 (091e20e, 2023-11-25, custom)"
   sodipodi:docname="icon.svg"
   inkscape:export-filename="dark_icon@2x.svg"
   inkscape:export-xdpi="96"
   inkscape:export-ydpi="96"
   xmlns:inkscape="http://www.inkscape.org/namespaces/inkscape"
   xmlns:sodipodi="http://sodipodi.sourceforge.net/DTD/sodipodi-0.dtd"
   xmlns="http://www.w3.org/2000/svg"
   xmlns:svg="http://www.w3.org/2000/svg"><sodipodi:namedview
     id="namedview1"
     pagecolor="#ffffff"
     bordercolor="#666666"
     borderopacity="1.0"
     inkscape:showpageshadow="2"
     inkscape:pageopacity="0.0"
     inkscape:pagecheckerboard="true"
     inkscape:deskcolor="#d1d1d1"
     inkscape:document-units="mm"
     inkscape:export-bgcolor="#ffffff00"
     inkscape:zoom="0.70710678"
     inkscape:cx="178.89801"
     inkscape:cy="225.56706"
     inkscape:window-width="1920"
     inkscape:window-height="1137"
     inkscape:window-x="-8"
     inkscape:window-y="-8"
     inkscape:window-maximized="1"
     inkscape:current-layer="g7" /><defs
     id="defs1" /><g
     inkscape:label="Layer 1"
     inkscape:groupmode="layer"
     id="layer1"
     transform="translate(-8.5011959,-160.46872)"><g
       id="g7"
       transform="matrix(3.1490379,0,0,3.1490379,-18.391157,-345.04926)"
       style="stroke-width:0.317557"><path
         style="fill:#fb5a00;fill-opacity:1;stroke:none;stroke-width:0.317557"
         d="m 27.050388,203.32249 c -0.578833,-0.11843 -1.466816,-0.28557 -1.973296,-0.37141 -0.867605,-0.14706 -1.7896,-0.47116 -3.94659,-1.38733 -2.982528,-1.2668 -6.854707,-4.48604 -8.705374,-7.23746 -3.3147993,-4.92815 -4.5858075,-10.74317 -3.5136752,-16.0755 1.5734422,-7.82561 6.6576612,-13.81395 13.9552092,-16.43682 1.143383,-0.41095 2.16943,-0.75223 2.280106,-0.75839 0.110676,-0.006 1.057051,-0.15637 2.103056,-0.33379 2.06367,-0.35004 5.196587,-0.20839 7.538151,0.34083 l 1.423043,0.33378 -1.476426,0.9858 c -1.7709,1.18241 -3.288907,3.1829 -4.11005,5.4164 -0.500839,1.36227 -0.584339,2.01456 -0.491112,3.83646 0.165587,3.23597 0.91084,4.93615 3.154367,7.1962 0.997001,1.00434 1.492356,1.36408 2.04415,1.78822 -0.888176,0.50444 -3.335018,1.24593 -5.593488,1.19894 -2.190092,-0.0456 -2.625732,-0.14315 -4.273569,-0.95724 -1.217876,-0.60167 -2.337019,-1.43407 -3.328165,-2.47544 l -1.493286,-1.56894 -0.607009,1.15252 c -0.72207,1.37099 -1.117701,5.90877 0.136036,8.46912 3.359496,6.8607 11.938037,8.55332 17.353998,3.42408 4.803373,-4.54908 4.331608,-12.54318 -0.971392,-16.46029 l -1.019557,-0.75311 1.282664,-0.56429 c 1.357585,-0.59725 4.811742,-0.82884 6.676337,-0.44763 2.22045,0.45396 4.466289,1.99961 6.145293,4.22936 2.420397,3.21433 2.559569,8.62121 0.366419,14.23549 -1.019296,2.60931 -2.366529,4.58779 -4.789017,7.03291 -2.457164,2.48012 -4.757253,3.99011 -7.774134,5.10367 -3.126171,1.15389 -7.712616,1.63222 -10.392689,1.08386 z"
         id="path1"
         sodipodi:nodetypes="sccccsccsccsssccsccscsscsssssss" /></g></g></svg>
