<?xml version="1.0" encoding="UTF-8" standalone="no"?>
<!-- Created with Inkscape (http://www.inkscape.org/) -->

<svg
   width="1916.0736mm"
   height="512mm"
   viewBox="0 0 1916.0736 512"
   version="1.1"
   id="svg1"
   xml:space="preserve"
   inkscape:version="1.3.2 (091e20e, 2023-11-25, custom)"
   sodipodi:docname="logo.svg"
   xmlns:inkscape="http://www.inkscape.org/namespaces/inkscape"
   xmlns:sodipodi="http://sodipodi.sourceforge.net/DTD/sodipodi-0.dtd"
   xmlns="http://www.w3.org/2000/svg"
   xmlns:svg="http://www.w3.org/2000/svg"><sodipodi:namedview
     id="namedview1"
     pagecolor="#ffffff"
     bordercolor="#666666"
     borderopacity="1.0"
     inkscape:showpageshadow="2"
     inkscape:pageopacity="0.0"
     inkscape:pagecheckerboard="true"
     inkscape:deskcolor="#d1d1d1"
     inkscape:document-units="mm"
     inkscape:export-bgcolor="#000000ff"
     inkscape:zoom="0.125"
     inkscape:cx="3340"
     inkscape:cy="1716"
     inkscape:window-width="1920"
     inkscape:window-height="1137"
     inkscape:window-x="-8"
     inkscape:window-y="-8"
     inkscape:window-maximized="1"
     inkscape:current-layer="layer1" /><defs
     id="defs1" /><g
     inkscape:label="Layer 1"
     inkscape:groupmode="layer"
     id="layer1"
     transform="translate(-8.5011959,-160.46872)"><g
       id="g7"
       transform="matrix(11.901875,0,0,11.901875,-93.139177,-1750.1502)"
       style="stroke-width:0.0840204"><path
         id="path2"
         style="fill:#ffffff;fill-opacity:1;stroke:none;stroke-width:0.0840204"
         d="m 101.29594,201.36058 c -1.705861,-0.48533 -2.942084,-1.5887 -3.100997,-2.41899 -0.20392,-1.06544 1.01588,-2.62696 1.466964,-2.99411 0.2996,0.15995 0.584973,0.27525 1.175263,0.66589 0.91008,0.60225 2.11808,0.71025 2.94184,0.71025 0.86842,0 1.92403,-0.0554 2.70631,-0.83722 0.81219,-0.81168 0.84052,-0.9178 0.92869,-3.47849 0.0855,-2.48416 -0.0537,-2.71548 -0.0537,-2.71548 0,0 -1.40942,0.94681 -2.1953,1.29437 -1.09787,0.48553 -1.89505,0.63192 -3.44117,0.63192 -3.301452,0 -4.59398,-0.60618 -5.923664,-2.77813 -0.64466,-1.053 -0.64837,-1.09928 -0.737026,-9.19427 l -0.08911,-8.13593 h 1.636619 c 2.05605,0 3.302397,0.55789 3.682551,1.64838 0.16349,0.46898 0.28363,3.00197 0.28448,5.99787 8.1e-4,2.85232 0.1245,5.62901 0.27486,6.17042 0.36412,1.31105 1.11975,1.79374 2.80802,1.79374 1.59708,0 2.49697,-0.28966 3.25508,-1.04777 0.51621,-0.5162 0.53973,-0.84656 0.53973,-7.5801 v -7.04038 l 2.01191,0.1016 c 1.87751,0.0948 2.06311,0.15888 2.77813,0.95913 l 0.76621,0.85754 v 10.79572 c 0,11.91309 -0.071,12.54974 -1.60549,14.40517 -0.78869,0.95361 -2.30294,1.91456 -3.51864,2.23294 -1.26413,0.33107 -5.36948,0.30362 -6.59154,-0.0441 z m 36.05734,-9.37299 c -2.84079,-1.02838 -4.98651,-2.91946 -6.26272,-5.51949 -0.68411,-1.39374 -0.74874,-1.77667 -0.74874,-4.43584 0,-2.64317 0.0671,-3.04711 0.73133,-4.39904 1.27899,-2.60336 3.6234,-4.67661 6.31575,-5.58524 1.58633,-0.53537 4.957,-0.53537 6.54333,0 4.4132,1.4894 7.28292,5.42354 7.28292,9.98428 0,4.55856 -2.86997,8.49501 -7.27809,9.98264 -1.61461,0.54489 -5.04242,0.53067 -6.58378,-0.0273 z m 5.95312,-5.12304 c 4.98314,-2.61405 3.01327,-10.29404 -2.64034,-10.29404 -4.84595,0 -7.29225,5.64814 -4.00944,9.2572 1.59137,1.74953 4.44345,2.19423 6.64978,1.03684 z M 160.11985,186.14 c -0.15297,0.21836 -2.89095,4.62959 -3.60068,5.60174 l -5.81671,-0.0207 6.22998,-9.83365 -5.54244,-9.23107 c 0.58752,-0.3504 1.5251,-0.81087 3.19189,-0.80945 1.6577,-0.0144 2.69575,0.77401 3.78252,2.641 0.90756,1.55912 1.32085,2.22258 2.17418,3.5157 l 1.62944,-2.54069 c 1.25399,-1.95527 1.8725,-2.6647 2.6843,-3.07885 1.5079,-0.76819 3.51252,-0.71055 4.89303,0.31873 -0.45705,0.55133 -6.19834,9.12883 -6.19834,9.43675 0,0.14475 0.34104,0.77516 0.75786,1.40092 2.55165,3.83069 4.89653,7.54736 4.99323,7.91433 0.0727,0.27595 -0.0933,0.55086 -0.50423,0.5917 -2.20718,0.21936 -3.43839,0.33206 -4.51001,-0.35604 -2.1232,-1.36332 -2.52756,-3.09072 -4.16402,-5.55039 z m -98.903647,-4.30618 0.06937,-9.85573 1.309003,-0.0828 c 1.553188,-0.0982 3.203929,0.55266 3.673217,1.44833 l 0.319004,0.60884 0.788971,-0.69041 c 1.441297,-1.26124 2.659509,-1.63969 5.269222,-1.63693 2.670025,0.003 3.867721,0.45166 4.888113,1.83181 l 0.551827,0.74639 0.728446,-0.67682 c 1.390276,-1.29173 2.689546,-1.76763 5.168553,-1.89317 2.771146,-0.14034 4.25641,0.31247 5.437558,1.65772 1.138976,1.29722 1.367127,3.19011 1.367127,11.34254 v 7.05593 H 88.008485 85.23036 v -6.62308 c 0,-7.73824 -0.102953,-8.22996 -1.831578,-8.74787 -1.170227,-0.35061 -2.672482,-0.0652 -3.903981,0.74171 l -0.614441,0.4026 v 7.11332 7.11332 h -2.762343 -2.762344 l -0.08193,-7.11647 c -0.09135,-7.93528 -0.07883,-7.88168 -1.988735,-8.512 -1.096455,-0.36187 -2.89858,0.0458 -3.763174,0.8513 -0.527751,0.49168 -0.547726,0.77044 -0.547726,7.64373 v 7.13344 h -2.913637 -2.913637 z m 56.293327,-2.66908 0.13229,-11.74056 c 0.0924,-0.83343 0.5799,-1.68175 0.95849,-2.22771 0.75793,-1.093 1.35035,-1.65512 2.64583,-2.35603 1.6438,-0.88937 2.97415,-1.0203 4.87517,-1.0216 1.45741,-0.001 2.86842,0.25639 4.03326,0.76232 1.51358,0.65741 2.17162,1.3596 2.17162,2.31731 0,0.66516 -0.87777,2.16638 -1.52527,2.88081 -2.26926,-1.87163 -5.04224,-2.02093 -6.33934,-1.0579 -1.0602,0.78716 -1.38749,1.60142 -1.3919,3.46287 l -0.004,1.64574 3.37343,0.074 3.37344,0.074 0.0773,2.05053 0.0773,2.05052 h -3.45071 -3.45071 v 7.8052 7.80521 l -2.84428,1.9e-4 -2.84427,1.8e-4 z" /><path
         style="fill:#fb5a00;fill-opacity:1;stroke:none;stroke-width:0.0840204"
         d="m 27.15432,203.32249 c -0.582083,-0.11843 -1.475052,-0.28557 -1.984375,-0.37141 -0.872477,-0.14706 -1.799648,-0.47116 -3.968749,-1.38733 -2.999275,-1.2668 -6.893195,-4.48604 -8.754253,-7.23746 -3.3334113,-4.92815 -4.6115559,-10.74317 -3.5334038,-16.0755 1.5822768,-7.82561 6.6950428,-13.81395 14.0335648,-16.43682 1.149802,-0.41095 2.181611,-0.75223 2.292908,-0.75839 0.111297,-0.006 1.062986,-0.15637 2.114864,-0.33379 2.075257,-0.35004 5.225765,-0.20839 7.580476,0.34083 l 1.431033,0.33378 -1.484716,0.9858 c -1.780843,1.18241 -3.307373,3.1829 -4.133127,5.4164 -0.503651,1.36227 -0.58762,2.01456 -0.493869,3.83646 0.166517,3.23597 0.915954,4.93615 3.172078,7.1962 1.002599,1.00434 1.500735,1.36408 2.055627,1.78822 -0.893163,0.50444 -3.353743,1.24593 -5.624894,1.19894 -2.202389,-0.0456 -2.640475,-0.14315 -4.297564,-0.95724 -1.224714,-0.60167 -2.350141,-1.43407 -3.346852,-2.47544 l -1.50167,-1.56894 -0.610417,1.15252 c -0.531956,1.00438 -0.609732,1.52662 -0.605081,4.06294 0.0048,2.64308 0.07299,3.04781 0.74188,4.40618 3.378359,6.8607 12.005067,8.55332 17.451437,3.42408 4.830343,-4.54908 4.355929,-12.54318 -0.976846,-16.46029 l -1.025282,-0.75311 1.289866,-0.56429 c 1.365208,-0.59725 4.838759,-0.82884 6.713823,-0.44763 2.232918,0.45396 4.491366,1.99961 6.179798,4.22936 2.433987,3.21433 2.57394,8.62121 0.368476,14.23549 -1.025019,2.60931 -2.379816,4.58779 -4.815906,7.03291 -2.470961,2.48012 -4.783964,3.99011 -7.817784,5.10367 -3.143724,1.15389 -7.755921,1.63222 -10.451042,1.08386 z"
         id="path1" /></g></g></svg>
